# xmcd
#
# Track frame offsets: 
#        150
#        10847
#        21535
#        33368
#        44649
#        56667
#        69905
#        79023
#        91429
#        104173
#
# Disc length: 1520 seconds
#
# Revision: 0
# Processed by: cddbd v1.5.2PL0 Copyright (c) Steve Scherf et al.
# Submitted via: ExactAudioCopy v0.99pb4
#
DISCID=8405ee0a
DTITLE=Billy "Crash" Craddock - You Better Move On
DYEAR=1972
DGENRE=Classic Country
TTITLE0=You Better Move On
TTITLE1=Jeanie Norman
TTITLE2=The Fool
TTITLE3=What He Don't Know Won't Hurt Him
TTITLE4=Dream Lover
TTITLE5=Seventh Son
TTITLE6=Til Morning
TTITLE7=She's My Angel
TTITLE8=She Could
TTITLE9=Treat Her Right
EXTD=
EXTT0=
EXTT1=
EXTT2=
EXTT3=
EXTT4=
EXTT5=
EXTT6=
EXTT7=
EXTT8=
EXTT9=
PLAYORDER=
